<svg width="619" height="115" xmlns="http://www.w3.org/2000/svg" xmlns:xlink="http://www.w3.org/1999/xlink" overflow="hidden"><defs><clipPath id="clip0"><rect x="63" y="346" width="619" height="115"/></clipPath></defs><g clip-path="url(#clip0)" transform="translate(-63 -346)"><rect x="106.5" y="412.5" width="100" height="39" stroke="#000000" stroke-width="1.33333" stroke-linejoin="round" stroke-miterlimit="10" fill="none"/><text font-family="Calibri,Calibri_MSFontService,sans-serif" font-weight="400" font-size="24" transform="translate(115.634 439)">You:<tspan x="47.2067" y="0">Car</tspan></text><rect x="250.5" y="412.5" width="165" height="39" stroke="#000000" stroke-width="1.33333" stroke-linejoin="round" stroke-miterlimit="10" fill="none"/><text font-family="Calibri,Calibri_MSFontService,sans-serif" font-weight="400" font-size="24" transform="translate(259.63 439)">Mont<tspan x="53.6133" y="0">y</tspan><tspan x="64.4467" y="0">: A goat</tspan></text><path d="M206.501 431.833 243.789 431.867 243.788 433.2 206.499 433.167ZM242.459 428.532 250.455 432.54 242.451 436.532Z"/><path d="M0.000600311-0.666666 37.289-0.633089 37.2878 0.700243-0.000600311 0.666666ZM35.9587-3.96762 43.9551 0.0395801 35.9515 4.03237Z" transform="matrix(1 0 0 -1 415.5 432.54)"/><rect x="459.5" y="412.5" width="218" height="39" stroke="#000000" stroke-width="1.33333" stroke-linejoin="round" stroke-miterlimit="10" fill="none"/><text font-family="Calibri,Calibri_MSFontService,sans-serif" font-weight="400" font-size="24" transform="translate(468.776 439)">You:<tspan x="47.2066" y="0">The other goat</tspan></text><rect x="106.5" y="349.5" width="130" height="38" stroke="#000000" stroke-width="1.33333" stroke-linejoin="round" stroke-miterlimit="10" fill="none"/><text font-family="Calibri,Calibri_MSFontService,sans-serif" font-weight="400" font-size="24" transform="translate(115.634 375)">You:<tspan x="47.2067" y="0">A goat</tspan></text><rect x="287.5" y="349.5" width="240" height="38" stroke="#000000" stroke-width="1.33333" stroke-linejoin="round" stroke-miterlimit="10" fill="none"/><text font-family="Calibri,Calibri_MSFontService,sans-serif" font-weight="400" font-size="24" transform="translate(296.331 375)">Mont<tspan x="53.6133" y="0">y</tspan><tspan x="64.4467" y="0">: The other goat</tspan></text><path d="M236.5 367.833 280.419 367.833 280.419 369.167 236.5 369.167ZM279.086 364.5 287.086 368.5 279.086 372.5Z"/><path d="M527.5 367.833 571.419 367.833 571.419 369.167 527.5 369.167ZM570.086 364.5 578.086 368.5 570.086 372.5Z"/><rect x="577.5" y="349.5" width="100" height="38" stroke="#000000" stroke-width="1.33333" stroke-linejoin="round" stroke-miterlimit="10" fill="none"/><text font-family="Calibri,Calibri_MSFontService,sans-serif" font-weight="400" font-size="24" transform="translate(586.865 375)">You:<tspan x="47.2067" y="0">Car</tspan><tspan font-family="Cambria Math,Cambria Math_MSFontService,sans-serif" font-size="18" x="-510.99" y="-9">2</tspan><tspan font-family="Cambria Math,Cambria Math_MSFontService,sans-serif" font-size="18" x="-510.99" y="10">3</tspan></text><path d="M75.9612 369.965 79.2945 369.965 82.6278 369.965 85.9612 369.965 85.9612 370.965 82.6278 370.965 79.2945 370.965 75.9612 370.965Z" fill-rule="evenodd"/><text font-family="Cambria Math,Cambria Math_MSFontService,sans-serif" font-weight="400" font-size="18" transform="translate(75.8745 427)">1<tspan x="0" y="19">3</tspan></text><path d="M75.9612 430.992 79.2945 430.992 82.6278 430.992 85.9612 430.992 85.9612 431.992 82.6278 431.992 79.2945 431.992 75.9612 431.992Z" fill-rule="evenodd"/></g></svg>