<svg width="544" height="234" xmlns="http://www.w3.org/2000/svg" xmlns:xlink="http://www.w3.org/1999/xlink" overflow="hidden"><defs><clipPath id="clip0"><rect x="188" y="183" width="544" height="234"/></clipPath></defs><g clip-path="url(#clip0)" transform="translate(-188 -183)"><rect x="194.5" y="249.5" width="144" height="39" stroke="#000000" stroke-width="1.33333" stroke-linejoin="round" stroke-miterlimit="10" fill="none"/><text font-family="Calibri,Calibri_MSFontService,sans-serif" font-weight="400" font-size="24" transform="translate(203.361 276)">You:<tspan x="47.2067" y="0">Goat #2</tspan></text><rect x="374.5" y="249.5" width="175" height="39" stroke="#000000" stroke-width="1.33333" stroke-linejoin="round" stroke-miterlimit="10" fill="none"/><text font-family="Calibri,Calibri_MSFontService,sans-serif" font-weight="400" font-size="24" transform="translate(384.059 276)">Mont<tspan x="53.6133" y="0">y</tspan><tspan x="64.4467" y="0">: Goat #1</tspan></text><path d="M338.5 268.833 367.946 268.833 367.946 270.167 338.5 270.167ZM366.612 265.5 374.612 269.5 366.612 273.5Z"/><path d="M549.5 268.833 578.946 268.833 578.946 270.167 549.5 270.167ZM577.612 265.5 585.612 269.5 577.612 273.5Z"/><rect x="585.5" y="249.5" width="100" height="39" stroke="#000000" stroke-width="1.33333" stroke-linejoin="round" stroke-miterlimit="10" fill="none"/><text font-family="Calibri,Calibri_MSFontService,sans-serif" font-weight="400" font-size="24" transform="translate(594.281 276)">You:<tspan x="47.2067" y="0">Car</tspan></text><rect x="194.5" y="313.5" width="100" height="39" stroke="#000000" stroke-width="1.33333" stroke-linejoin="round" stroke-miterlimit="10" fill="none"/><text font-family="Calibri,Calibri_MSFontService,sans-serif" font-weight="400" font-size="24" transform="translate(203.361 340)">You:<tspan x="47.2067" y="0">Car</tspan></text><rect x="374.5" y="313.5" width="175" height="39" stroke="#000000" stroke-width="1.33333" stroke-linejoin="round" stroke-miterlimit="10" fill="none"/><text font-family="Calibri,Calibri_MSFontService,sans-serif" font-weight="400" font-size="24" transform="translate(384.059 340)">Mont<tspan x="53.6133" y="0">y</tspan><tspan x="64.4467" y="0">: Goat #1</tspan></text><path d="M294.5 331.833 368.49 331.833 368.49 333.167 294.5 333.167ZM367.156 328.5 375.156 332.5 367.156 336.5Z"/><path d="M549.5 331.833 577.407 331.833 577.407 333.167 549.5 333.167ZM576.073 328.5 584.073 332.5 576.073 336.5Z"/><rect x="583.5" y="313.5" width="145" height="39" stroke="#000000" stroke-width="1.33333" stroke-linejoin="round" stroke-miterlimit="10" fill="none"/><text font-family="Calibri,Calibri_MSFontService,sans-serif" font-weight="400" font-size="24" transform="translate(592.742 340)">You:<tspan x="47.2067" y="0">Goat #2</tspan></text><rect x="374.5" y="368.5" width="175" height="39" stroke="#000000" stroke-width="1.33333" stroke-linejoin="round" stroke-miterlimit="10" fill="none"/><text font-family="Calibri,Calibri_MSFontService,sans-serif" font-weight="400" font-size="24" transform="translate(384.059 395)">Mont<tspan x="53.6133" y="0">y</tspan><tspan x="64.4467" y="0">: Goat #2</tspan></text><path d="M549.5 387.833 577.407 387.833 577.407 389.167 549.5 389.167ZM576.073 384.5 584.073 388.5 576.073 392.5Z"/><rect x="583.5" y="368.5" width="145" height="39" stroke="#000000" stroke-width="1.33333" stroke-linejoin="round" stroke-miterlimit="10" fill="none"/><text font-family="Calibri,Calibri_MSFontService,sans-serif" font-weight="400" font-size="24" transform="translate(592.742 395)">You:<tspan x="47.2067" y="0">Goat #1</tspan></text><path d="M294.083 331.003 301.659 331.635 309.118 333.42 316.066 336.225 322.322 339.863 327.643 344.223 331.688 349.038 333.268 351.606 334.386 354.303 335.113 357.009 335.37 359.718 335.62 362.343 335.597 362.201 336.222 364.763 336.166 364.598 337.291 367.161 337.242 367.064 338.679 369.564 338.573 369.413 342.573 374.101 342.445 373.976 347.57 378.163 347.44 378.073 353.565 381.636 353.437 381.573 360.249 384.323 360.086 384.272 368.26 386.034 367.839 387.989 359.58 386.209 352.622 383.4 346.366 379.762 341.11 375.467 336.992 370.641 335.481 368.014 334.299 365.322 333.636 362.604 333.38 359.907 333.13 357.282 333.159 357.447 332.472 354.884 332.514 355.008 331.451 352.446 331.523 352.587 330.023 350.149 330.109 350.268 326.172 345.581 326.304 345.711 321.116 341.461 321.247 341.552 315.122 337.989 315.251 338.052 308.438 335.302 308.58 335.348 301.267 333.598 301.417 333.622 293.917 332.997ZM367.09 382.905 374.688 387.625 366.353 390.871Z"/><rect x="194.5" y="186.5" width="144" height="39" stroke="#000000" stroke-width="1.33333" stroke-linejoin="round" stroke-miterlimit="10" fill="none"/><text font-family="Calibri,Calibri_MSFontService,sans-serif" font-weight="400" font-size="24" transform="translate(203.361 213)">You:<tspan x="47.2067" y="0">Goat #1</tspan></text><rect x="374.5" y="186.5" width="175" height="39" stroke="#000000" stroke-width="1.33333" stroke-linejoin="round" stroke-miterlimit="10" fill="none"/><text font-family="Calibri,Calibri_MSFontService,sans-serif" font-weight="400" font-size="24" transform="translate(384.059 213)">Mont<tspan x="53.6133" y="0">y</tspan><tspan x="64.4467" y="0">: Goat #2</tspan></text><path d="M338.5 204.833 367.946 204.833 367.946 206.167 338.5 206.167ZM366.612 201.5 374.612 205.5 366.612 209.5Z"/><path d="M549.5 204.833 578.946 204.833 578.946 206.167 549.5 206.167ZM577.612 201.5 585.612 205.5 577.612 209.5Z"/><rect x="585.5" y="186.5" width="100" height="39" stroke="#000000" stroke-width="1.33333" stroke-linejoin="round" stroke-miterlimit="10" fill="none"/><text font-family="Calibri,Calibri_MSFontService,sans-serif" font-weight="400" font-size="24" transform="translate(594.281 213)">You:<tspan x="47.2067" y="0">Car</tspan></text></g></svg>